<?xml version="1.0" standalone="no"?>
<!DOCTYPE svg PUBLIC "-//W3C//DTD SVG 20010904//EN"
 "http://www.w3.org/TR/2001/REC-SVG-20010904/DTD/svg10.dtd">
<svg version="1.0" xmlns="http://www.w3.org/2000/svg"
 width="500.000000pt" height="500.000000pt" viewBox="0 0 500.000000 500.000000"
 preserveAspectRatio="xMidYMid meet">
<metadata>
Created by potrace 1.11, written by Peter Selinger 2001-2013
</metadata>
<g transform="translate(0.000000,500.000000) scale(0.100000,-0.100000)"
fill="#000000" stroke="none">
<path d="M2450 4993 c-8 -2 -24 -8 -35 -13 -11 -5 -99 -41 -195 -81 -96 -39
-188 -77 -205 -84 -51 -22 -902 -374 -1070 -443 -178 -73 -217 -96 -244 -150
-10 -20 -172 -407 -359 -859 -305 -735 -340 -827 -338 -870 2 -41 86 -263 181
-478 7 -16 29 -70 49 -120 20 -49 41 -99 46 -110 6 -11 102 -243 214 -515 156
-378 212 -504 238 -532 29 -32 90 -60 523 -238 270 -111 504 -208 520 -216 17
-7 86 -36 155 -64 69 -29 190 -79 270 -112 214 -89 267 -108 303 -108 18 0
102 29 187 64 349 143 1174 484 1320 546 63 27 135 56 160 66 63 24 107 59
129 102 18 36 321 762 586 1407 30 72 68 164 85 205 37 89 36 141 -6 236 -14
32 -51 120 -81 194 -30 74 -65 160 -79 190 -34 78 -385 930 -447 1084 -74 184
-76 186 -362 303 -126 52 -342 141 -480 198 -1021 424 -974 405 -1016 404 -19
0 -41 -3 -49 -6z m260 -133 c96 -39 189 -77 205 -85 17 -7 278 -115 580 -240
303 -125 559 -230 570 -235 128 -56 155 -71 169 -92 35 -54 698 -1674 699
-1708 0 -23 -46 -147 -136 -365 -76 -181 -142 -339 -147 -350 -8 -17 -164
-395 -285 -690 -99 -241 -126 -300 -143 -318 -28 -28 -1680 -709 -1722 -710
-24 0 -195 66 -535 207 -275 114 -603 251 -730 303 -126 52 -243 100 -260 108
-16 7 -64 27 -106 44 -42 18 -84 40 -93 50 -9 10 -46 90 -82 177 -36 88 -75
178 -85 201 -10 24 -19 45 -19 48 0 4 -9 25 -19 48 -10 23 -117 278 -236 567
-119 289 -223 539 -231 555 -29 65 -44 118 -38 144 6 25 104 263 503 1225 105
253 199 468 209 478 10 11 225 105 478 209 252 105 599 249 770 319 170 71
323 134 340 141 90 38 121 47 144 44 14 -1 104 -35 200 -75z"/>
<path d="M2340 4734 c-388 -184 -389 -185 -401 -228 -15 -54 -50 -213 -55
-251 -2 -16 -7 -37 -10 -47 -2 -9 -7 -25 -9 -35 -2 -10 -13 -63 -25 -118 -12
-55 -24 -111 -26 -125 -3 -14 -14 -67 -25 -119 -12 -51 -22 -103 -25 -114 -7
-39 -114 -541 -129 -607 -27 -121 -67 -305 -71 -335 -3 -16 -9 -45 -14 -63 -9
-36 0 -75 22 -88 17 -11 1885 -13 1915 -3 26 10 37 45 83 267 18 84 29 164 26
177 -3 13 -16 27 -29 31 -12 5 -329 8 -703 9 -732 1 -714 0 -714 51 0 14 9 68
21 120 11 53 22 104 24 113 2 13 46 218 60 281 22 101 112 526 125 590 5 25
12 56 15 70 3 14 8 36 11 50 2 14 20 96 39 182 37 166 36 196 -4 217 -25 14
-15 16 -101 -25z"/>
<path d="M1511 2397 c-26 -12 -33 -34 -72 -217 -41 -199 -43 -221 -25 -245 14
-20 26 -20 714 -20 753 0 732 1 732 -51 0 -14 -38 -203 -84 -422 -47 -218 -88
-410 -91 -427 -3 -16 -7 -34 -9 -40 -4 -18 -15 -69 -20 -95 -4 -24 -81 -383
-111 -519 -10 -47 -11 -69 -3 -87 24 -51 48 -45 276 72 117 60 220 117 229
126 13 14 34 97 67 258 6 29 7 33 41 190 14 64 27 125 29 136 7 36 164 778
181 854 2 8 13 62 25 120 12 58 32 151 45 208 25 114 23 148 -9 159 -31 11
-1890 10 -1915 0z"/>
</g>
</svg>
